<svg xmlns="http://www.w3.org/2000/svg" style="display: none;">
    <symbol id="icon-arrow" viewBox="0 0 7 12">
        <g id="Page-1" stroke="none" stroke-width="1" fill="none" fill-rule="evenodd" stroke-linecap="round">
            <g id="главная" transform="translate(-207.000000, -88.000000)" stroke="#000000" stroke-width="2">
                <g id="Дата" transform="translate(24.000000, 82.000000)">
                    <g id="arrow" transform="translate(179.000000, 7.000000)">
                        <polyline id="Rectangle-4-Copy" transform="translate(5.000000, 5.000000) rotate(-135.000000) translate(-5.000000, -5.000000) " points="8 8 2 8 2 2 2 2"></polyline>
                    </g>
                </g>
            </g>
        </g>
    </symbol>

    <symbol id="icon-calendar" viewBox="0 0 12 12">
        <g id="Page-1" stroke="none" stroke-width="1" fill="none" fill-rule="evenodd">
            <g id="assets" transform="translate(-140.000000, -76.000000)">
                <g transform="translate(138.000000, 74.000000)">
                    <rect id="Rectangle-2" x="0" y="0" width="16" height="16"></rect>
                    <path d="M3,6 L3,13 L13,13 L13,6 L3,6 Z M12,3 L14,3 L14,14 L2,14 L2,3 L4,3 L4,2 L6,2 L6,3 L10,3 L10,2 L12,2 L12,3 Z M4,7 L4,9 L6,9 L6,7 L4,7 Z M7,7 L7,9 L9,9 L9,7 L7,7 Z M4,10 L4,12 L6,12 L6,10 L4,10 Z" id="ic_calendar" fill="#000000" fill-rule="nonzero"></path>
                </g>
            </g>
        </g>
    </symbol>

    <symbol id="icon-close" viewBox="0 0 10 10">
        <g transform="translate(-325.000000, -306.000000)">
            <g transform="translate(204.000000, 299.000000)">
                <g transform="translate(118.000000, 4.000000)">
                    <path d="M8.02081528,6.62132034 L5.19238816,3.79289322 C4.80186386,3.40236893 4.16869888,3.40236893 3.77817459,3.79289322 L3.77817459,3.79289322 L3.77817459,3.79289322 C3.3876503,4.18341751 3.3876503,4.81658249 3.77817459,5.20710678 L3.77817459,5.20710678 L6.60660172,8.03553391 L3.77817459,10.863961 C3.3876503,11.2544853 3.3876503,11.8876503 3.77817459,12.2781746 L3.77817459,12.2781746 L3.77817459,12.2781746 C4.16869888,12.6686989 4.80186386,12.6686989 5.19238816,12.2781746 L5.19238816,12.2781746 L8.02081528,9.44974747 L10.8492424,12.2781746 C11.2397667,12.6686989 11.8729317,12.6686989 12.263456,12.2781746 C12.6539803,11.8876503 12.6539803,11.2544853 12.263456,10.863961 L9.43502884,8.03553391 L12.263456,5.20710678 C12.6539803,4.81658249 12.6539803,4.18341751 12.263456,3.79289322 C11.8729317,3.40236893 11.2397667,3.40236893 10.8492424,3.79289322 L8.02081528,6.62132034 Z"></path>
                </g>
            </g>
        </g>
    </symbol>

    <symbol id="icon-edit" viewBox="0 0 12 12">
        <g id="Page-1" stroke="none" stroke-width="1" fill="none" fill-rule="evenodd">
            <g id="assets" transform="translate(-110.000000, -76.000000)">
                <g id="edit" transform="translate(108.000000, 74.000000)">
                    <rect id="Rectangle" x="0" y="0" width="16" height="16"></rect>
                    <path d="M13.0793987,5.10592253 C13.3068671,4.87845412 13.3068671,4.49934011 13.0793987,4.28353675 L11.7145883,2.91872631 C11.4987849,2.6912579 11.1196709,2.6912579 10.8922025,2.91872631 L9.81901819,3.98607806 L12.0062144,6.17327428 L13.0793987,5.10592253 Z M2.75,11.0609288 L2.75,13.248125 L4.93719622,13.248125 L11.3879669,6.79152175 L9.20077073,4.60432553 L2.75,11.0609288 Z" id="ic_edit" fill="#000000" fill-rule="nonzero"></path>
                </g>
            </g>
        </g>
    </symbol>
</svg>
